<svg id="Layer_1" data-name="Layer 1" xmlns="http://www.w3.org/2000/svg" viewBox="0 0 96 96"><defs><style>.cls-1{fill:none;stroke:#000;stroke-linecap:round;stroke-linejoin:round;stroke-width:1.98px;}</style></defs><title>airplane, aeroplane, plane, travel, transport, transportation</title><path class="cls-1" d="M18.65,80.71a28.23,28.23,0,0,0,9.27-1.5,27.86,27.86,0,0,0,10.57-6.6L83.41,27.68a53,53,0,0,0,6.57-8,27.59,27.59,0,0,0,3-6A26.1,26.1,0,0,0,93.76,11"/><path class="cls-1" d="M15.29,77.35a27.74,27.74,0,0,1,8.1-19.84L68.32,12.59a53,53,0,0,1,8-6.57,27.59,27.59,0,0,1,6-3A26.1,26.1,0,0,1,85,2.24"/><rect class="cls-1" x="19.85" y="59.55" width="4.74" height="28.46" rx="2.37" transform="translate(58.68 5.9) rotate(45)"/><polygon class="cls-1" points="87.09 87.74 80.38 94.45 77.18 89.26 56.06 55.03 73.67 37.42 87.09 87.74"/><polygon class="cls-1" points="81.22 85.22 77.18 89.26 56.06 55.03 69.57 41.52 81.22 85.22"/><path class="cls-1" d="M75.8,45.36l2.07-2.07a2.38,2.38,0,0,1,3.35,0l2.52,2.52a2.38,2.38,0,0,1,0,3.35l-5.48,5.48"/><path class="cls-1" d="M80.38,62.58l1.68-1.68a2.39,2.39,0,0,1,3.36,0l2.51,2.52a2.38,2.38,0,0,1,0,3.35l-5.07,5.08"/><polygon class="cls-1" points="58.58 22.32 40.97 39.94 6.74 18.82 1.55 15.62 8.26 8.91 58.58 22.32"/><polygon class="cls-1" points="54.48 26.43 40.97 39.94 6.74 18.82 10.78 14.78 54.48 26.43"/><path class="cls-1" d="M41.36,17.74l5.48-5.48a2.38,2.38,0,0,1,3.35,0l2.52,2.52a2.38,2.38,0,0,1,0,3.35L50.64,20.2"/><path class="cls-1" d="M24.15,13.14l5.08-5.07a2.38,2.38,0,0,1,3.35,0l2.52,2.51a2.39,2.39,0,0,1,0,3.36l-1.68,1.68"/><polyline class="cls-1" points="34.42 75.95 39.83 84.68 33.96 90.55 23.7 80.29"/><polyline class="cls-1" points="20.05 61.58 11.32 56.17 5.45 62.04 15.71 72.3"/><path class="cls-1" d="M82.9,23.16l-1.68,1.68c1-2.41-.34-5.37-2.51-7.55s-5.14-3.53-7.55-2.51l1.68-1.68c2.77-2.78,6.44-1.94,9.22.84S85.68,20.39,82.9,23.16Z"/><path class="cls-1" d="M94.42,7.08a23.9,23.9,0,0,1-.66,4,9.88,9.88,0,0,1-5.83-3,9.88,9.88,0,0,1-3-5.83,23.9,23.9,0,0,1,4-.66,5.06,5.06,0,0,1,5.5,5.5Z"/></svg>